<svg xmlns="http://www.w3.org/2000/svg" viewBox="0 0 800 450">
  <title>Recipe finder preview placeholder</title>
  <rect width="800" height="450" fill="#e3ead1"/>
  <rect x="52" y="42" width="696" height="366" rx="18" fill="#fffdf5"/>
  <rect x="52" y="42" width="696" height="60" rx="18" fill="#315b42"/><circle cx="90" cy="72" r="13" fill="#f0c75e"/><rect x="118" y="65" width="124" height="14" rx="7" fill="#fffdf5"/>
  <rect x="84" y="128" width="630" height="42" rx="21" fill="#edf0e5"/><circle cx="112" cy="149" r="9" fill="#79947a"/><rect x="134" y="144" width="160" height="9" rx="4" fill="#b8c4b5"/>
  <circle cx="227" cy="274" r="104" fill="#e5ad65"/><circle cx="227" cy="274" r="75" fill="#f8dc9b"/><path d="M179 248c24-31 54-28 69-3 23-9 43 9 37 31-8 31-48 50-91 35-31-11-38-40-15-63z" fill="#70915b"/><circle cx="265" cy="300" r="13" fill="#d96e50"/><circle cx="200" cy="291" r="10" fill="#d96e50"/>
  <rect x="386" y="210" width="272" height="22" rx="11" fill="#315b42"/><rect x="386" y="252" width="236" height="10" rx="5" fill="#a8b5a2"/><rect x="386" y="275" width="250" height="10" rx="5" fill="#c4cbbd"/>
  <rect x="386" y="315" width="112" height="34" rx="17" fill="#d96e50"/><rect x="518" y="326" width="58" height="10" rx="5" fill="#d3a951"/>
</svg>